<svg width="22" height="22" viewBox="0 0 22 22" fill="none" xmlns="http://www.w3.org/2000/svg">
<path fill-rule="evenodd" clip-rule="evenodd" d="M15.1352 0C15.582 0 15.9447 0.336 15.9447 0.75L15.9452 1.59781C17.5211 1.69792 18.83 2.19805 19.7564 3.0581C20.7677 3.9991 21.2998 5.3521 21.2945 6.9751V16.0981C21.2945 19.4301 19.0105 21.5001 15.3354 21.5001H6.20633C2.53118 21.5001 0.247299 19.4011 0.247299 16.0221V6.9731C0.247299 3.83029 2.28407 1.81294 5.60588 1.59815L5.60654 0.75C5.60654 0.336 5.9692 0 6.41605 0C6.8629 0 7.22555 0.336 7.22555 0.75L7.22523 1.579H14.3251L14.3257 0.75C14.3257 0.336 14.6883 0 15.1352 0ZM19.6754 8.904H1.86631V16.0221C1.86631 18.5881 3.40761 20.0001 6.20633 20.0001H15.3354C18.1341 20.0001 19.6754 18.6141 19.6754 16.0981L19.6754 8.904ZM15.5752 15.1963C16.0221 15.1963 16.3847 15.5323 16.3847 15.9463C16.3847 16.3603 16.0221 16.6963 15.5752 16.6963C15.1284 16.6963 14.7614 16.3603 14.7614 15.9463C14.7614 15.5323 15.1187 15.1963 15.5655 15.1963H15.5752ZM10.7856 15.1963C11.2325 15.1963 11.5951 15.5323 11.5951 15.9463C11.5951 16.3603 11.2325 16.6963 10.7856 16.6963C10.3388 16.6963 9.97182 16.3603 9.97182 15.9463C9.97182 15.5323 10.3291 15.1963 10.7759 15.1963H10.7856ZM5.98604 15.1963C6.43289 15.1963 6.79554 15.5323 6.79554 15.9463C6.79554 16.3603 6.43289 16.6963 5.98604 16.6963C5.53919 16.6963 5.17114 16.3603 5.17114 15.9463C5.17114 15.5323 5.52948 15.1963 5.97633 15.1963H5.98604ZM15.5752 11.3096C16.0221 11.3096 16.3847 11.6456 16.3847 12.0596C16.3847 12.4736 16.0221 12.8096 15.5752 12.8096C15.1284 12.8096 14.7614 12.4736 14.7614 12.0596C14.7614 11.6456 15.1187 11.3096 15.5655 11.3096H15.5752ZM10.7856 11.3096C11.2325 11.3096 11.5951 11.6456 11.5951 12.0596C11.5951 12.4736 11.2325 12.8096 10.7856 12.8096C10.3388 12.8096 9.97182 12.4736 9.97182 12.0596C9.97182 11.6456 10.3291 11.3096 10.7759 11.3096H10.7856ZM5.98604 11.3096C6.43289 11.3096 6.79554 11.6456 6.79554 12.0596C6.79554 12.4736 6.43289 12.8096 5.98604 12.8096C5.53919 12.8096 5.17114 12.4736 5.17114 12.0596C5.17114 11.6456 5.52948 11.3096 5.97633 11.3096H5.98604ZM14.3251 3.079H7.22523L7.22555 4.041C7.22555 4.455 6.8629 4.791 6.41605 4.791C5.9692 4.791 5.60654 4.455 5.60654 4.041L5.60597 3.1017C3.188 3.28989 1.86631 4.64786 1.86631 6.9731V7.404H19.6754L19.6754 6.9731C19.6797 5.7381 19.3214 4.7781 18.6101 4.1181C17.9857 3.53791 17.073 3.1914 15.9456 3.10218L15.9447 4.041C15.9447 4.455 15.582 4.791 15.1352 4.791C14.6883 4.791 14.3257 4.455 14.3257 4.041L14.3251 3.079Z" fill="#50CA17"/>
</svg>
