<svg width="22" height="22" viewBox="0 0 22 22" fill="none" xmlns="http://www.w3.org/2000/svg">
<path fill-rule="evenodd" clip-rule="evenodd" d="M15.2209 0C15.6677 0 16.0304 0.336 16.0304 0.75L16.0309 1.59781C17.6068 1.69792 18.9157 2.19805 19.8421 3.0581C20.8534 3.9991 21.3855 5.3521 21.3802 6.9751V16.0981C21.3802 19.4301 19.0963 21.5001 15.4211 21.5001H6.29206C2.61691 21.5001 0.333023 19.4011 0.333023 16.0221V6.9731C0.333023 3.83029 2.3698 1.81294 5.69161 1.59815L5.69227 0.75C5.69227 0.336 6.05493 0 6.50177 0C6.94862 0 7.31128 0.336 7.31128 0.75L7.31095 1.579H14.4108L14.4114 0.75C14.4114 0.336 14.774 0 15.2209 0ZM19.7611 8.904H1.95203V16.0221C1.95203 18.5881 3.49333 20.0001 6.29206 20.0001H15.4211C18.2198 20.0001 19.7612 18.6141 19.7612 16.0981L19.7611 8.904ZM15.6609 15.1963C16.1078 15.1963 16.4704 15.5323 16.4704 15.9463C16.4704 16.3603 16.1078 16.6963 15.6609 16.6963C15.2141 16.6963 14.8471 16.3603 14.8471 15.9463C14.8471 15.5323 15.2044 15.1963 15.6512 15.1963H15.6609ZM10.8714 15.1963C11.3182 15.1963 11.6809 15.5323 11.6809 15.9463C11.6809 16.3603 11.3182 16.6963 10.8714 16.6963C10.4245 16.6963 10.0575 16.3603 10.0575 15.9463C10.0575 15.5323 10.4148 15.1963 10.8617 15.1963H10.8714ZM6.07176 15.1963C6.51861 15.1963 6.88127 15.5323 6.88127 15.9463C6.88127 16.3603 6.51861 16.6963 6.07176 16.6963C5.62492 16.6963 5.25686 16.3603 5.25686 15.9463C5.25686 15.5323 5.6152 15.1963 6.06205 15.1963H6.07176ZM15.6609 11.3096C16.1078 11.3096 16.4704 11.6456 16.4704 12.0596C16.4704 12.4736 16.1078 12.8096 15.6609 12.8096C15.2141 12.8096 14.8471 12.4736 14.8471 12.0596C14.8471 11.6456 15.2044 11.3096 15.6512 11.3096H15.6609ZM10.8714 11.3096C11.3182 11.3096 11.6809 11.6456 11.6809 12.0596C11.6809 12.4736 11.3182 12.8096 10.8714 12.8096C10.4245 12.8096 10.0575 12.4736 10.0575 12.0596C10.0575 11.6456 10.4148 11.3096 10.8617 11.3096H10.8714ZM6.07176 11.3096C6.51861 11.3096 6.88127 11.6456 6.88127 12.0596C6.88127 12.4736 6.51861 12.8096 6.07176 12.8096C5.62492 12.8096 5.25686 12.4736 5.25686 12.0596C5.25686 11.6456 5.6152 11.3096 6.06205 11.3096H6.07176ZM14.4108 3.079H7.31095L7.31128 4.041C7.31128 4.455 6.94862 4.791 6.50177 4.791C6.05493 4.791 5.69227 4.455 5.69227 4.041L5.69169 3.1017C3.27372 3.28989 1.95203 4.64786 1.95203 6.9731V7.404H19.7611L19.7612 6.9731C19.7655 5.7381 19.4071 4.7781 18.6958 4.1181C18.0714 3.53791 17.1587 3.1914 16.0313 3.10218L16.0304 4.041C16.0304 4.455 15.6677 4.791 15.2209 4.791C14.774 4.791 14.4114 4.455 14.4114 4.041L14.4108 3.079Z" fill="#3CC1FF"/>
</svg>
