<svg width="22" height="22" viewBox="0 0 22 22" fill="none" xmlns="http://www.w3.org/2000/svg">
<path fill-rule="evenodd" clip-rule="evenodd" d="M15.2446 0C15.6915 0 16.0541 0.336 16.0541 0.75L16.0546 1.59781C17.6306 1.69792 18.9394 2.19805 19.8658 3.0581C20.8772 3.9991 21.4093 5.3521 21.4039 6.9751V16.0981C21.4039 19.4301 19.12 21.5001 15.4448 21.5001H6.31578C2.64063 21.5001 0.35675 19.4011 0.35675 16.0221V6.9731C0.35675 3.83029 2.39352 1.81294 5.71533 1.59815L5.71599 0.75C5.71599 0.336 6.07865 0 6.5255 0C6.97235 0 7.335 0.336 7.335 0.75L7.33468 1.579H14.4346L14.4351 0.75C14.4351 0.336 14.7978 0 15.2446 0ZM19.7849 8.904H1.97576V16.0221C1.97576 18.5881 3.51706 20.0001 6.31578 20.0001H15.4448C18.2436 20.0001 19.7849 18.6141 19.7849 16.0981L19.7849 8.904ZM15.6847 15.1963C16.1315 15.1963 16.4942 15.5323 16.4942 15.9463C16.4942 16.3603 16.1315 16.6963 15.6847 16.6963C15.2378 16.6963 14.8708 16.3603 14.8708 15.9463C14.8708 15.5323 15.2281 15.1963 15.675 15.1963H15.6847ZM10.8951 15.1963C11.3419 15.1963 11.7046 15.5323 11.7046 15.9463C11.7046 16.3603 11.3419 16.6963 10.8951 16.6963C10.4483 16.6963 10.0813 16.3603 10.0813 15.9463C10.0813 15.5323 10.4385 15.1963 10.8854 15.1963H10.8951ZM6.09549 15.1963C6.54234 15.1963 6.90499 15.5323 6.90499 15.9463C6.90499 16.3603 6.54234 16.6963 6.09549 16.6963C5.64864 16.6963 5.28059 16.3603 5.28059 15.9463C5.28059 15.5323 5.63893 15.1963 6.08578 15.1963H6.09549ZM15.6847 11.3096C16.1315 11.3096 16.4942 11.6456 16.4942 12.0596C16.4942 12.4736 16.1315 12.8096 15.6847 12.8096C15.2378 12.8096 14.8708 12.4736 14.8708 12.0596C14.8708 11.6456 15.2281 11.3096 15.675 11.3096H15.6847ZM10.8951 11.3096C11.3419 11.3096 11.7046 11.6456 11.7046 12.0596C11.7046 12.4736 11.3419 12.8096 10.8951 12.8096C10.4483 12.8096 10.0813 12.4736 10.0813 12.0596C10.0813 11.6456 10.4385 11.3096 10.8854 11.3096H10.8951ZM6.09549 11.3096C6.54234 11.3096 6.90499 11.6456 6.90499 12.0596C6.90499 12.4736 6.54234 12.8096 6.09549 12.8096C5.64864 12.8096 5.28059 12.4736 5.28059 12.0596C5.28059 11.6456 5.63893 11.3096 6.08578 11.3096H6.09549ZM14.4346 3.079H7.33468L7.335 4.041C7.335 4.455 6.97235 4.791 6.5255 4.791C6.07865 4.791 5.71599 4.455 5.71599 4.041L5.71542 3.1017C3.29745 3.28989 1.97576 4.64786 1.97576 6.9731V7.404H19.7849L19.7849 6.9731C19.7892 5.7381 19.4308 4.7781 18.7196 4.1181C18.0952 3.53791 17.1824 3.1914 16.055 3.10218L16.0541 4.041C16.0541 4.455 15.6915 4.791 15.2446 4.791C14.7978 4.791 14.4351 4.455 14.4351 4.041L14.4346 3.079Z" fill="#BE63F9"/>
</svg>
