<svg width="22" height="22" viewBox="0 0 22 22" fill="none" xmlns="http://www.w3.org/2000/svg">
<path fill-rule="evenodd" clip-rule="evenodd" d="M15.1589 0C15.6058 0 15.9684 0.336 15.9684 0.75L15.9689 1.59781C17.5449 1.69792 18.8538 2.19805 19.7801 3.0581C20.7915 3.9991 21.3236 5.3521 21.3182 6.9751V16.0981C21.3182 19.4301 19.0343 21.5001 15.3591 21.5001H6.23009C2.55494 21.5001 0.271057 19.4011 0.271057 16.0221V6.9731C0.271057 3.83029 2.30783 1.81294 5.62964 1.59815L5.6303 0.75C5.6303 0.336 5.99296 0 6.43981 0C6.88665 0 7.24931 0.336 7.24931 0.75L7.24899 1.579H14.3489L14.3494 0.75C14.3494 0.336 14.7121 0 15.1589 0ZM19.6992 8.904H1.89007V16.0221C1.89007 18.5881 3.43136 20.0001 6.23009 20.0001H15.3591C18.1579 20.0001 19.6992 18.6141 19.6992 16.0981L19.6992 8.904ZM15.599 15.1963C16.0458 15.1963 16.4085 15.5323 16.4085 15.9463C16.4085 16.3603 16.0458 16.6963 15.599 16.6963C15.1521 16.6963 14.7852 16.3603 14.7852 15.9463C14.7852 15.5323 15.1424 15.1963 15.5893 15.1963H15.599ZM10.8094 15.1963C11.2563 15.1963 11.6189 15.5323 11.6189 15.9463C11.6189 16.3603 11.2563 16.6963 10.8094 16.6963C10.3626 16.6963 9.99558 16.3603 9.99558 15.9463C9.99558 15.5323 10.3528 15.1963 10.7997 15.1963H10.8094ZM6.0098 15.1963C6.45664 15.1963 6.8193 15.5323 6.8193 15.9463C6.8193 16.3603 6.45664 16.6963 6.0098 16.6963C5.56295 16.6963 5.1949 16.3603 5.1949 15.9463C5.1949 15.5323 5.55324 15.1963 6.00008 15.1963H6.0098ZM15.599 11.3096C16.0458 11.3096 16.4085 11.6456 16.4085 12.0596C16.4085 12.4736 16.0458 12.8096 15.599 12.8096C15.1521 12.8096 14.7852 12.4736 14.7852 12.0596C14.7852 11.6456 15.1424 11.3096 15.5893 11.3096H15.599ZM10.8094 11.3096C11.2563 11.3096 11.6189 11.6456 11.6189 12.0596C11.6189 12.4736 11.2563 12.8096 10.8094 12.8096C10.3626 12.8096 9.99558 12.4736 9.99558 12.0596C9.99558 11.6456 10.3528 11.3096 10.7997 11.3096H10.8094ZM6.0098 11.3096C6.45664 11.3096 6.8193 11.6456 6.8193 12.0596C6.8193 12.4736 6.45664 12.8096 6.0098 12.8096C5.56295 12.8096 5.1949 12.4736 5.1949 12.0596C5.1949 11.6456 5.55324 11.3096 6.00008 11.3096H6.0098ZM14.3489 3.079H7.24899L7.24931 4.041C7.24931 4.455 6.88665 4.791 6.43981 4.791C5.99296 4.791 5.6303 4.455 5.6303 4.041L5.62973 3.1017C3.21176 3.28989 1.89007 4.64786 1.89007 6.9731V7.404H19.6992L19.6992 6.9731C19.7035 5.7381 19.3451 4.7781 18.6339 4.1181C18.0095 3.53791 17.0967 3.1914 15.9693 3.10218L15.9684 4.041C15.9684 4.455 15.6058 4.791 15.1589 4.791C14.7121 4.791 14.3494 4.455 14.3494 4.041L14.3489 3.079Z" fill="#FF6C4C"/>
</svg>
