<svg width="20" height="20" viewBox="0 0 20 20" fill="none" xmlns="http://www.w3.org/2000/svg">
<path d="M1.66675 7.49984C1.66675 6.25368 1.66675 5.63061 1.9347 5.1665C2.11023 4.86247 2.36271 4.60999 2.66675 4.43445C3.13085 4.1665 3.75393 4.1665 5.00008 4.1665H15.0001C16.2462 4.1665 16.8693 4.1665 17.3334 4.43445C17.6375 4.60999 17.8899 4.86247 18.0655 5.1665C18.3334 5.63061 18.3334 6.25368 18.3334 7.49984C18.3334 7.81138 18.3334 7.96714 18.2664 8.08317C18.2225 8.15918 18.1594 8.2223 18.0834 8.26618C17.9674 8.33317 17.8116 8.33317 17.5001 8.33317H2.50008C2.18854 8.33317 2.03277 8.33317 1.91675 8.26618C1.84074 8.2223 1.77762 8.15918 1.73374 8.08317C1.66675 7.96714 1.66675 7.81138 1.66675 7.49984Z" fill="#5D697A"/>
<path fill-rule="evenodd" clip-rule="evenodd" d="M1.66675 14.3333C1.66675 16.2189 1.66675 17.1618 2.25253 17.7475C2.83832 18.3333 3.78113 18.3333 5.66675 18.3333H14.3334C16.219 18.3333 17.1618 18.3333 17.7476 17.7475C18.3334 17.1618 18.3334 16.2189 18.3334 14.3333V11C18.3334 10.5286 18.3334 10.2929 18.187 10.1464C18.0405 10 17.8048 10 17.3334 10H2.66675C2.19534 10 1.95964 10 1.81319 10.1464C1.66675 10.2929 1.66675 10.5286 1.66675 11V14.3333ZM5.83342 12.5C5.83342 12.1885 5.83342 12.0327 5.9004 11.9167C5.94429 11.8407 6.00741 11.7775 6.08342 11.7337C6.19944 11.6667 6.35521 11.6667 6.66675 11.6667H8.33342C8.64495 11.6667 8.80072 11.6667 8.91675 11.7337C8.99276 11.7775 9.05588 11.8407 9.09976 11.9167C9.16675 12.0327 9.16675 12.1885 9.16675 12.5C9.16675 12.8115 9.16675 12.9673 9.09976 13.0833C9.05588 13.1593 8.99276 13.2225 8.91675 13.2663C8.80072 13.3333 8.64495 13.3333 8.33341 13.3333H6.66675C6.35521 13.3333 6.19944 13.3333 6.08342 13.2663C6.00741 13.2225 5.94429 13.1593 5.9004 13.0833C5.83342 12.9673 5.83342 12.8115 5.83342 12.5ZM5.9004 15.25C5.83342 15.366 5.83342 15.5218 5.83342 15.8333C5.83342 16.1449 5.83342 16.3006 5.9004 16.4167C5.94429 16.4927 6.00741 16.5558 6.08342 16.5997C6.19944 16.6667 6.35521 16.6667 6.66675 16.6667H8.33342C8.64495 16.6667 8.80072 16.6667 8.91675 16.5997C8.99276 16.5558 9.05588 16.4927 9.09976 16.4167C9.16675 16.3006 9.16675 16.1449 9.16675 15.8333C9.16675 15.5218 9.16675 15.366 9.09976 15.25C9.05588 15.174 8.99276 15.1109 8.91675 15.067C8.80072 15 8.64495 15 8.33342 15H6.66675C6.35521 15 6.19944 15 6.08342 15.067C6.00741 15.1109 5.94429 15.174 5.9004 15.25ZM10.8334 12.5C10.8334 12.1885 10.8334 12.0327 10.9004 11.9167C10.9443 11.8407 11.0074 11.7775 11.0834 11.7337C11.1994 11.6667 11.3552 11.6667 11.6667 11.6667H13.3334C13.645 11.6667 13.8007 11.6667 13.9167 11.7337C13.9928 11.7775 14.0559 11.8407 14.0998 11.9167C14.1667 12.0327 14.1667 12.1885 14.1667 12.5C14.1667 12.8115 14.1667 12.9673 14.0998 13.0833C14.0559 13.1593 13.9928 13.2225 13.9167 13.2663C13.8007 13.3333 13.645 13.3333 13.3334 13.3333H11.6667C11.3552 13.3333 11.1994 13.3333 11.0834 13.2663C11.0074 13.2225 10.9443 13.1593 10.9004 13.0833C10.8334 12.9673 10.8334 12.8115 10.8334 12.5ZM10.9004 15.25C10.8334 15.366 10.8334 15.5218 10.8334 15.8333C10.8334 16.1449 10.8334 16.3006 10.9004 16.4167C10.9443 16.4927 11.0074 16.5558 11.0834 16.5997C11.1994 16.6667 11.3552 16.6667 11.6667 16.6667H13.3334C13.645 16.6667 13.8007 16.6667 13.9167 16.5997C13.9928 16.5558 14.0559 16.4927 14.0998 16.4167C14.1667 16.3006 14.1667 16.1449 14.1667 15.8333C14.1667 15.5218 14.1667 15.366 14.0998 15.25C14.0559 15.174 13.9928 15.1109 13.9167 15.067C13.8007 15 13.645 15 13.3334 15H11.6667C11.3552 15 11.1994 15 11.0834 15.067C11.0074 15.1109 10.9443 15.174 10.9004 15.25Z" fill="#5D697A"/>
<path d="M5.83325 2.5L5.83325 5" stroke="#5D697A" stroke-width="2" stroke-linecap="round"/>
<path d="M14.1667 2.5L14.1667 5" stroke="#5D697A" stroke-width="2" stroke-linecap="round"/>
</svg>
