<svg width="24" height="24" viewBox="0 0 24 24" fill="none" xmlns="http://www.w3.org/2000/svg">
    <path opacity="0.4"
          d="M22.1811 13.66C22.0311 12.01 21.5911 10.25 18.3811 10.25H5.62106C2.41106 10.25 1.98106 12.01 1.82106 13.66L1.26106 19.75C1.19106 20.51 1.44106 21.27 1.96106 21.84C2.49106 22.42 3.24106 22.75 4.04106 22.75H5.92106C7.54106 22.75 7.85106 21.82 8.05106 21.21L8.25106 20.61C8.48106 19.92 8.54106 19.75 9.44106 19.75H14.5611C15.4611 19.75 15.4911 19.85 15.7511 20.61L15.9511 21.21C16.1511 21.82 16.4611 22.75 18.0811 22.75H19.9611C20.7511 22.75 21.5111 22.42 22.0411 21.84C22.5611 21.27 22.8111 20.51 22.7411 19.75L22.1811 13.66Z"
          fill="#7A297B"/>
    <path
        d="M21.001 7.25H20.001C19.991 7.25 19.991 7.25 19.981 7.25L19.601 5.44C19.241 3.69 18.491 2.08 15.511 2.08H12.751H11.251H8.49098C5.51098 2.08 4.76098 3.69 4.40098 5.44L4.02098 7.25C4.01098 7.25 4.01098 7.25 4.00098 7.25H3.00098C2.59098 7.25 2.25098 7.59 2.25098 8C2.25098 8.41 2.59098 8.75 3.00098 8.75H3.71098L3.29098 10.75C3.83098 10.44 4.58098 10.25 5.62098 10.25H18.381C19.421 10.25 20.171 10.44 20.711 10.75L20.291 8.75H21.001C21.411 8.75 21.751 8.41 21.751 8C21.751 7.59 21.411 7.25 21.001 7.25Z"
        fill="#7A297B"/>
    <path
        d="M9.00098 15.75H6.00098C5.59098 15.75 5.25098 15.41 5.25098 15C5.25098 14.59 5.59098 14.25 6.00098 14.25H9.00098C9.41098 14.25 9.75098 14.59 9.75098 15C9.75098 15.41 9.41098 15.75 9.00098 15.75Z"
        fill="#7A297B"/>
    <path
        d="M18.001 15.75H15.001C14.591 15.75 14.251 15.41 14.251 15C14.251 14.59 14.591 14.25 15.001 14.25H18.001C18.411 14.25 18.751 14.59 18.751 15C18.751 15.41 18.411 15.75 18.001 15.75Z"
        fill="#7A297B"/>
</svg>
