<svg width="14" height="14" viewBox="0 0 14 14" fill="none" xmlns="http://www.w3.org/2000/svg">
<path d="M5.91107 7V9.66667M8.57774 7V9.66667" stroke="#F73E04" stroke-linecap="round"/>
<path d="M1.24442 3.1884C0.968273 3.1884 0.744415 3.41225 0.744415 3.6884C0.744415 3.96454 0.968273 4.1884 1.24442 4.1884V3.1884ZM13.2444 4.1884C13.5206 4.1884 13.7444 3.96454 13.7444 3.6884C13.7444 3.41225 13.5206 3.1884 13.2444 3.1884V4.1884ZM2.57775 3.6884V3.1884H2.07775V3.6884H2.57775ZM11.9111 3.6884H12.4111V3.1884H11.9111V3.6884ZM11.4723 10.2202L11.9527 10.3589L11.4723 10.2202ZM8.39372 12.9036L8.47703 13.3966L8.47703 13.3966L8.39372 12.9036ZM6.09509 12.9036L6.1784 12.4106L6.1784 12.4106L6.09509 12.9036ZM5.98993 12.8858L5.90661 13.3788L5.90662 13.3788L5.98993 12.8858ZM3.01651 10.2202L2.53613 10.3589L3.01651 10.2202ZM8.4989 12.8858L8.41558 12.3928L8.41558 12.3928L8.4989 12.8858ZM4.47278 2.65959L4.92664 2.86938L4.92664 2.86938L4.47278 2.65959ZM5.1231 1.78741L4.78941 1.41505L4.78941 1.41505L5.1231 1.78741ZM6.09637 1.20464L6.27036 1.67339L6.27036 1.67339L6.09637 1.20464ZM8.39247 1.20464L8.56646 0.735893L8.56646 0.735893L8.39247 1.20464ZM10.0161 2.65959L10.4699 2.44981L10.4699 2.44981L10.0161 2.65959ZM1.24442 4.1884H13.2444V3.1884H1.24442V4.1884ZM8.41558 12.3928L8.31041 12.4106L8.47703 13.3966L8.58221 13.3788L8.41558 12.3928ZM6.1784 12.4106L6.07324 12.3928L5.90662 13.3788L6.01178 13.3966L6.1784 12.4106ZM11.4111 3.6884V7.11722H12.4111V3.6884H11.4111ZM3.07775 7.11724V3.6884H2.07775V7.11724H3.07775ZM11.4111 7.11722C11.4111 8.12037 11.2699 9.11842 10.9919 10.0815L11.9527 10.3589C12.2568 9.30556 12.4111 8.21414 12.4111 7.11722H11.4111ZM8.31041 12.4106C7.60465 12.5298 6.88415 12.5298 6.1784 12.4106L6.01177 13.3966C6.82783 13.5345 7.66098 13.5345 8.47703 13.3966L8.31041 12.4106ZM6.07324 12.3928C4.8479 12.1857 3.84546 11.289 3.4969 10.0815L2.53613 10.3589C2.99027 11.932 4.29886 13.1071 5.90661 13.3788L6.07324 12.3928ZM3.4969 10.0815C3.21888 9.11841 3.07775 8.12038 3.07775 7.11724H2.07775C2.07775 8.21415 2.23207 9.30555 2.53613 10.3589L3.4969 10.0815ZM8.58221 13.3788C10.19 13.1071 11.4985 11.9321 11.9527 10.3589L10.9919 10.0815C10.6433 11.289 9.64091 12.1857 8.41558 12.3928L8.58221 13.3788ZM4.74442 3.6884C4.74442 3.40911 4.80571 3.13099 4.92664 2.86938L4.01892 2.44981C3.83831 2.84053 3.74442 3.26159 3.74442 3.6884H4.74442ZM4.92664 2.86938C5.04766 2.60755 5.22679 2.36588 5.45678 2.15978L4.78941 1.41505C4.46225 1.70823 4.19942 2.05929 4.01892 2.44981L4.92664 2.86938ZM5.45678 2.15978C5.68688 1.95358 5.96292 1.78751 6.27036 1.67339L5.92237 0.735893C5.50186 0.891983 5.11647 1.12196 4.78941 1.41505L5.45678 2.15978ZM6.27036 1.67339C6.57782 1.55926 6.90895 1.5 7.24442 1.5V0.5C6.79195 0.5 6.34286 0.579811 5.92237 0.735893L6.27036 1.67339ZM7.24442 1.5C7.57988 1.5 7.91101 1.55926 8.21847 1.67339L8.56646 0.735893C8.14597 0.579811 7.69688 0.5 7.24442 0.5V1.5ZM8.21847 1.67339C8.52591 1.78751 8.80195 1.95358 9.03205 2.15978L9.69942 1.41505C9.37237 1.12197 8.98698 0.891984 8.56646 0.735893L8.21847 1.67339ZM9.03205 2.15978C9.26204 2.36588 9.44117 2.60755 9.56219 2.86938L10.4699 2.44981C10.2894 2.05929 10.0266 1.70823 9.69942 1.41505L9.03205 2.15978ZM9.56219 2.86938C9.68312 3.131 9.74442 3.40911 9.74442 3.6884H10.7444C10.7444 3.26159 10.6505 2.84053 10.4699 2.44981L9.56219 2.86938ZM2.57775 4.1884H11.9111V3.1884H2.57775V4.1884Z" fill="#F73E04"/>
</svg>
