<svg width="32" height="32" viewBox="0 0 32 32" fill="none" xmlns="http://www.w3.org/2000/svg">
<circle cx="16" cy="16" r="15.5" stroke="#CDCFD2"/>
<path d="M17.413 9.413C17.147 9.147 16.79 9 16.419 9H11.4C10.63 9 10 9.63 10 10.4V21.6C10 22.37 10.623 23 11.393 23H19.8C20.57 23 21.2 22.37 21.2 21.6V13.781C21.2 13.41 21.053 13.053 20.787 12.794L17.413 9.413ZM17.7 20.2H13.5C13.115 20.2 12.8 19.885 12.8 19.5C12.8 19.115 13.115 18.8 13.5 18.8H17.7C18.085 18.8 18.4 19.115 18.4 19.5C18.4 19.885 18.085 20.2 17.7 20.2ZM17.7 17.4H13.5C13.115 17.4 12.8 17.085 12.8 16.7C12.8 16.315 13.115 16 13.5 16H17.7C18.085 16 18.4 16.315 18.4 16.7C18.4 17.085 18.085 17.4 17.7 17.4ZM16.3 13.2V10.05L20.15 13.9H17C16.615 13.9 16.3 13.585 16.3 13.2Z" fill="#CDCFD2"/>
</svg>
