<svg width="14" height="14" viewBox="0 0 25 24" fill="none" xmlns="http://www.w3.org/2000/svg">
<path d="M15.5 22.75H9.5C4.07 22.75 1.75 20.43 1.75 15V9C1.75 3.57 4.07 1.25 9.5 1.25H11.5C11.91 1.25 12.25 1.59 12.25 2C12.25 2.41 11.91 2.75 11.5 2.75H9.5C4.89 2.75 3.25 4.39 3.25 9V15C3.25 19.61 4.89 21.25 9.5 21.25H15.5C20.11 21.25 21.75 19.61 21.75 15V13C21.75 12.59 22.09 12.25 22.5 12.25C22.91 12.25 23.25 12.59 23.25 13V15C23.25 20.43 20.93 22.75 15.5 22.75Z" fill="#171717"/>
<path d="M9.00008 17.6901C8.39008 17.6901 7.83008 17.4701 7.42008 17.0701C6.93008 16.5801 6.72008 15.8701 6.83008 15.1201L7.26008 12.1101C7.34008 11.5301 7.72008 10.7801 8.13008 10.3701L16.0101 2.49006C18.0001 0.500059 20.0201 0.500059 22.0101 2.49006C23.1001 3.58006 23.5901 4.69006 23.4901 5.80006C23.4001 6.70006 22.9201 7.58006 22.0101 8.48006L14.1301 16.3601C13.7201 16.7701 12.9701 17.1501 12.3901 17.2301L9.38008 17.6601C9.25008 17.6901 9.12008 17.6901 9.00008 17.6901ZM17.0701 3.55006L9.19008 11.4301C9.00008 11.6201 8.78008 12.0601 8.74008 12.3201L8.31008 15.3301C8.27008 15.6201 8.33008 15.8601 8.48008 16.0101C8.63008 16.1601 8.87008 16.2201 9.16008 16.1801L12.1701 15.7501C12.4301 15.7101 12.8801 15.4901 13.0601 15.3001L20.9401 7.42006C21.5901 6.77006 21.9301 6.19006 21.9801 5.65006C22.0401 5.00006 21.7001 4.31006 20.9401 3.54006C19.3401 1.94006 18.2401 2.39006 17.0701 3.55006Z" fill="#171717"/>
<path d="M20.3501 9.83003C20.2801 9.83003 20.2101 9.82003 20.1501 9.80003C17.5201 9.06003 15.4301 6.97003 14.6901 4.34003C14.5801 3.94003 14.8101 3.53003 15.2101 3.41003C15.6101 3.30003 16.0201 3.53003 16.1301 3.93003C16.7301 6.06003 18.4201 7.75003 20.5501 8.35003C20.9501 8.46003 21.1801 8.88003 21.0701 9.28003C20.9801 9.62003 20.6801 9.83003 20.3501 9.83003Z" fill="#171717"/>
</svg>
