<svg width="21" height="19" viewBox="0 0 21 19" fill="none" xmlns="http://www.w3.org/2000/svg">
<path d="M11.5 18.125L2.5 18.125C2.00272 18.125 1.5258 17.9275 1.17417 17.5758C0.822541 17.2242 0.624997 16.7473 0.624997 16.25L0.624998 2.75C0.624998 2.25272 0.822542 1.7758 1.17417 1.42417C1.5258 1.07254 2.00272 0.874999 2.5 0.874999L11.5 0.875C11.9973 0.875 12.4742 1.07254 12.8258 1.42417C13.1775 1.77581 13.375 2.25272 13.375 2.75L13.375 5C13.375 5.29837 13.2565 5.58452 13.0455 5.79549C12.8345 6.00647 12.5484 6.125 12.25 6.125C11.9516 6.125 11.6655 6.00647 11.4545 5.79549C11.2435 5.58452 11.125 5.29837 11.125 5L11.125 3.125L2.875 3.125L2.875 15.875L11.125 15.875L11.125 14C11.125 13.7016 11.2435 13.4155 11.4545 13.2045C11.6655 12.9935 11.9516 12.875 12.25 12.875C12.5484 12.875 12.8345 12.9935 13.0455 13.2045C13.2565 13.4155 13.375 13.7016 13.375 14L13.375 16.25C13.375 16.7473 13.1775 17.2242 12.8258 17.5758C12.4742 17.9275 11.9973 18.125 11.5 18.125ZM15.2041 6.54594L17.0312 8.375L9.25 8.375C8.95163 8.375 8.66548 8.49353 8.4545 8.7045C8.24353 8.91548 8.125 9.20163 8.125 9.5C8.125 9.79837 8.24353 10.0845 8.4545 10.2955C8.66548 10.5065 8.95163 10.625 9.25 10.625L17.0312 10.625L15.2012 12.4541C15.0966 12.5587 15.0136 12.6829 14.957 12.8197C14.9003 12.9564 14.8712 13.1029 14.8712 13.2509C14.8712 13.3989 14.9003 13.5455 14.957 13.6822C15.0136 13.8189 15.0966 13.9432 15.2012 14.0478C15.3059 14.1525 15.4301 14.2355 15.5669 14.2921C15.7036 14.3487 15.8501 14.3779 15.9981 14.3779C16.1461 14.3779 16.2927 14.3487 16.4294 14.2921C16.5661 14.2355 16.6903 14.1525 16.795 14.0478L20.545 10.2978C20.6499 10.1933 20.7331 10.0691 20.7899 9.93236C20.8467 9.79561 20.8759 9.649 20.8759 9.50094C20.8759 9.35287 20.8467 9.20626 20.7899 9.06952C20.7331 8.93277 20.6499 8.80858 20.545 8.70406L16.795 4.95406C16.6904 4.84942 16.5661 4.7664 16.4294 4.70977C16.2927 4.65314 16.1461 4.62399 15.9981 4.62399C15.6992 4.62399 15.4126 4.74272 15.2012 4.95406C14.9899 5.16541 14.8712 5.45205 14.8712 5.75094C14.8712 6.04982 14.9899 6.33647 15.2012 6.54781L15.2041 6.54594Z" fill="white"/>
</svg>
