<svg width="20" height="16" viewBox="0 0 20 16" fill="none" xmlns="http://www.w3.org/2000/svg">
<path d="M8.4469 4.66602L8.4469 14.666" stroke="#7881A4" stroke-width="1.2" stroke-linecap="round" stroke-dasharray="2 3"/>
<path d="M10.1136 14.6663L5.84997 14.6663C4.6218 14.6663 3.48794 14.0077 2.87943 12.9409L2.7233 12.6672C2.68185 12.5945 2.6499 12.5168 2.62825 12.436C2.531 12.0731 2.6505 11.6866 2.9356 11.4419L3.37307 11.0664C4.5783 10.0319 4.05061 8.0625 2.4896 7.7692L2.04684 7.68602C1.60188 7.60242 1.2443 7.27105 1.12712 6.83373C0.597706 4.85794 1.77023 2.82706 3.74603 2.29764V2.29764C4.61259 2.06545 5.04587 1.94935 5.42601 1.99378C5.97291 2.05771 6.46926 2.34428 6.79807 2.78594C7.02662 3.09294 7.14271 3.52622 7.37491 4.39278L7.75834 5.82378L8.44693 8.4975M8.44693 14.6663H15.5766C17.6221 14.6663 19.2803 13.0081 19.2803 10.9626C19.2803 10.5099 19.0206 10.0973 18.6125 9.90135L18.2063 9.70641C16.7744 9.01909 16.7744 6.98026 18.2063 6.29294L18.6125 6.09799C19.0206 5.90208 19.2803 5.48945 19.2803 5.03671C19.2803 2.99121 17.6221 1.33301 15.5766 1.33301H12.4469C10.5613 1.33301 9.61851 1.33301 9.03272 1.91879C8.44693 2.50458 8.44693 3.44739 8.44693 5.33301V8.83301" stroke="#7881A4" stroke-width="1.4" stroke-linecap="round"/>
</svg>
