<svg width="21" height="20" viewBox="0 0 21 20" fill="none" xmlns="http://www.w3.org/2000/svg">
<g clip-path="url(#clip0_32_2809)">
<path d="M11.9837 6.45801C11.9837 7.45212 11.1778 8.25801 10.1837 8.25801V9.65801C11.951 9.65801 13.3837 8.22532 13.3837 6.45801H11.9837ZM10.1837 8.25801C9.18954 8.25801 8.38365 7.45212 8.38365 6.45801H6.98365C6.98365 8.22532 8.41634 9.65801 10.1837 9.65801V8.25801ZM8.38365 6.45801C8.38365 5.4639 9.18954 4.65801 10.1837 4.65801V3.25801C8.41634 3.25801 6.98365 4.6907 6.98365 6.45801H8.38365ZM10.1837 4.65801C11.1778 4.65801 11.9837 5.4639 11.9837 6.45801H13.3837C13.3837 4.6907 11.951 3.25801 10.1837 3.25801V4.65801ZM7.68365 12.158H12.6837V10.758H7.68365V12.158ZM12.6837 15.758H7.68365V17.158H12.6837V15.758ZM7.68365 15.758C6.68954 15.758 5.88365 14.9521 5.88365 13.958H4.48365C4.48365 15.7253 5.91634 17.158 7.68365 17.158V15.758ZM14.4837 13.958C14.4837 14.9521 13.6778 15.758 12.6837 15.758V17.158C14.451 17.158 15.8837 15.7253 15.8837 13.958H14.4837ZM12.6837 12.158C13.6778 12.158 14.4837 12.9639 14.4837 13.958H15.8837C15.8837 12.1907 14.451 10.758 12.6837 10.758V12.158ZM7.68365 10.758C5.91634 10.758 4.48365 12.1907 4.48365 13.958H5.88365C5.88365 12.9639 6.68954 12.158 7.68365 12.158V10.758Z" fill="#8F96B2"/>
<path d="M6.64375 8.65689C6.51231 8.44574 6.26569 8.33301 6.01697 8.33301C4.98143 8.33301 4.14197 7.49354 4.14197 6.45801C4.14197 5.42247 4.98143 4.58301 6.01697 4.58301C6.26569 4.58301 6.51231 4.47028 6.64375 4.25913C6.64957 4.24979 6.65541 4.24048 6.6613 4.23119C6.88013 3.88576 6.76926 3.39667 6.3628 3.35193C6.24925 3.33943 6.13386 3.33301 6.01697 3.33301C4.29108 3.33301 2.89197 4.73212 2.89197 6.45801C2.89197 8.1839 4.29108 9.58301 6.01697 9.58301C6.13386 9.58301 6.24925 9.57659 6.3628 9.56409C6.76926 9.51934 6.88014 9.03025 6.6613 8.68483C6.65542 8.67554 6.64957 8.66622 6.64375 8.65689Z" fill="#8F96B2"/>
<path d="M4.10721 15.2637C4.01261 15.1059 3.84563 14.9997 3.66162 14.9997H3.51697C2.48143 14.9997 1.64197 14.1602 1.64197 13.1247C1.64197 12.0891 2.48143 11.2497 3.51697 11.2497H3.66162C3.84563 11.2497 4.01261 11.1434 4.10721 10.9856C4.33813 10.6004 4.08754 9.99968 3.63838 9.99968H3.51697C1.79108 9.99968 0.391968 11.3988 0.391968 13.1247C0.391968 14.8506 1.79108 16.2497 3.51697 16.2497H3.63838C4.08754 16.2497 4.33813 15.649 4.10721 15.2637Z" fill="#8F96B2"/>
<path d="M13.706 8.68483C13.4871 9.03025 13.598 9.51934 14.0045 9.56409C14.118 9.57659 14.2334 9.58301 14.3503 9.58301C16.0762 9.58301 17.4753 8.1839 17.4753 6.45801C17.4753 4.73212 16.0762 3.33301 14.3503 3.33301C14.2334 3.33301 14.118 3.33943 14.0045 3.35193C13.598 3.39668 13.4871 3.88576 13.706 4.23119C13.7119 4.24048 13.7177 4.24979 13.7235 4.25913C13.855 4.47028 14.1016 4.58301 14.3503 4.58301C15.3858 4.58301 16.2253 5.42247 16.2253 6.45801C16.2253 7.49354 15.3858 8.33301 14.3503 8.33301C14.1016 8.33301 13.855 8.44574 13.7235 8.65689C13.7177 8.66622 13.7119 8.67554 13.706 8.68483Z" fill="#8F96B2"/>
<path d="M16.2601 15.2637C16.0291 15.649 16.2797 16.2497 16.7289 16.2497H16.8503C18.5762 16.2497 19.9753 14.8506 19.9753 13.1247C19.9753 11.3988 18.5762 9.99968 16.8503 9.99968H16.7289C16.2797 9.99968 16.0291 10.6004 16.2601 10.9856C16.3547 11.1434 16.5216 11.2497 16.7056 11.2497H16.8503C17.8858 11.2497 18.7253 12.0891 18.7253 13.1247C18.7253 14.1602 17.8858 14.9997 16.8503 14.9997H16.7056C16.5216 14.9997 16.3547 15.1059 16.2601 15.2637Z" fill="#8F96B2"/>
</g>
<defs>
<clipPath id="clip0_32_2809">
<rect width="20" height="20" fill="white" transform="translate(0.183655)"/>
</clipPath>
</defs>
</svg>
