<svg width="21" height="20" viewBox="0 0 21 20" fill="none" xmlns="http://www.w3.org/2000/svg">
<path d="M10.4734 8.27151C11.0307 8.82882 11.0307 9.73242 10.4734 10.2897C9.91607 10.8471 9.01248 10.8471 8.45516 10.2897C7.89784 9.73242 7.89784 8.82882 8.45516 8.27151C9.01248 7.71419 9.91607 7.71419 10.4734 8.27151Z" fill="#8F96B2"/>
<path d="M5.57006 13.6945L5.22422 14.3032L5.57006 13.6945ZM3.64169 12.4361L3.15036 12.9346L3.64169 12.4361ZM2.50532 7.93119L3.20327 7.98474L2.50532 7.93119ZM2.47052 10.2336L3.15861 10.105L2.47052 10.2336ZM12.361 15.0257L11.988 14.4333L12.361 15.0257ZM7.13493 14.5838L7.48076 13.9752H7.48076L7.13493 14.5838ZM8.93682 15.4885L8.7345 16.1586L8.93682 15.4885ZM14.7666 6.95207L15.3752 6.60623L14.7666 6.95207ZM15.6713 8.75396L16.3415 8.55164L15.6713 8.75396ZM15.2086 12.1781L14.6162 11.8052V11.8052L15.2086 12.1781ZM8.11405 2.32246L8.16761 3.02041L8.11405 2.32246ZM10.4165 2.28766L10.2879 2.97575L10.4165 2.28766ZM13.8774 5.3872L13.2688 5.73304L13.8774 5.3872ZM12.6189 3.45883L13.1175 2.96749V2.96749L12.6189 3.45883ZM5.14731 2.77243L5.42263 3.41601L5.14731 2.77243ZM2.95529 4.96444L3.59887 5.23977L2.95529 4.96444ZM10.9486 15.87L11.4436 15.375L11.4436 15.375L10.9486 15.87ZM4.40917 3.23629C4.1358 2.96292 3.69258 2.96292 3.41922 3.23629C3.14585 3.50966 3.14585 3.95287 3.41922 4.22624L4.40917 3.23629ZM7.96024 8.76726C8.23361 9.04063 8.67682 9.04063 8.95019 8.76726C9.22356 8.49389 9.22356 8.05068 8.95019 7.77731L7.96024 8.76726ZM15.8106 10.5236L15.1171 10.4286L15.8106 10.5236ZM10.7064 15.6278L10.6114 14.9343L10.7064 15.6278ZM13.2688 5.73304L14.158 7.2979L15.3752 6.60623L14.486 5.04136L13.2688 5.73304ZM7.48076 13.9752L5.9159 13.0859L5.22422 14.3032L6.78909 15.1924L7.48076 13.9752ZM5.9159 13.0859C4.85581 12.4836 4.44182 12.2418 4.13302 11.9375L3.15036 12.9346C3.62155 13.399 4.23314 13.74 5.22422 14.3032L5.9159 13.0859ZM1.80737 7.87763C1.72016 9.0142 1.66092 9.71193 1.78243 10.3622L3.15861 10.105C3.07897 9.67888 3.10998 9.20046 3.20327 7.98474L1.80737 7.87763ZM4.13302 11.9375C3.62871 11.4405 3.28867 10.801 3.15861 10.105L1.78243 10.3622C1.96501 11.3393 2.44239 12.237 3.15036 12.9346L4.13302 11.9375ZM13.3631 13.1802C12.6039 13.9394 12.3011 14.2363 11.988 14.4333L12.7339 15.6181C13.2123 15.3169 13.6438 14.8795 14.3531 14.1702L13.3631 13.1802ZM6.78909 15.1924C7.66122 15.688 8.19327 15.9952 8.7345 16.1586L9.13914 14.8183C8.78499 14.7114 8.41424 14.5056 7.48076 13.9752L6.78909 15.1924ZM14.158 7.2979C14.6885 8.23138 14.8943 8.60213 15.0012 8.95628L16.3415 8.55164C16.1781 8.01041 15.8708 7.47835 15.3752 6.60623L14.158 7.2979ZM14.3531 14.1702C15.0624 13.4609 15.4998 13.0295 15.801 12.551L14.6162 11.8052C14.4191 12.1182 14.1223 12.421 13.3631 13.1802L14.3531 14.1702ZM8.16761 3.02041C9.38332 2.92712 9.86174 2.89611 10.2879 2.97575L10.5451 1.59957C9.89479 1.47806 9.19707 1.5373 8.06049 1.62451L8.16761 3.02041ZM14.486 5.04136C13.9228 4.05028 13.5818 3.43869 13.1175 2.96749L12.1203 3.95016C12.4246 4.25896 12.6664 4.67295 13.2688 5.73304L14.486 5.04136ZM10.2879 2.97575C10.9839 3.10581 11.6234 3.44585 12.1203 3.95016L13.1175 2.96749C12.4198 2.25952 11.5221 1.78215 10.5451 1.59957L10.2879 2.97575ZM8.06049 1.62451C6.55894 1.73973 5.63793 1.80118 4.87198 2.12885L5.42263 3.41601C5.92323 3.20185 6.55786 3.14393 8.16761 3.02041L8.06049 1.62451ZM3.20327 7.98474C3.32679 6.375 3.38471 5.74037 3.59887 5.23977L2.31171 4.68912C1.98404 5.45506 1.92259 6.37608 1.80737 7.87763L3.20327 7.98474ZM4.87198 2.12885C3.72103 2.62122 2.80408 3.53817 2.31171 4.68912L3.59887 5.23977C3.9496 4.41991 4.60277 3.76674 5.42263 3.41601L4.87198 2.12885ZM12.4234 16.3548L11.4436 15.375L10.4536 16.365L11.4334 17.3448L12.4234 16.3548ZM15.5578 11.2608L16.5376 12.2406L17.5276 11.2506L16.5478 10.2708L15.5578 11.2608ZM16.5376 16.3548C15.4015 17.4909 13.5595 17.4909 12.4234 16.3548L11.4334 17.3448C13.1163 19.0276 15.8447 19.0276 17.5276 17.3448L16.5376 16.3548ZM17.5276 17.3448C19.2104 15.6619 19.2104 12.9335 17.5276 11.2506L16.5376 12.2406C17.6738 13.3767 17.6738 15.2187 16.5376 16.3548L17.5276 17.3448ZM3.41922 4.22624L7.96024 8.76726L8.95019 7.77731L4.40917 3.23629L3.41922 4.22624ZM15.0012 8.95628C15.1468 9.4386 15.1839 9.94065 15.1171 10.4286L16.5042 10.6186C16.598 9.93366 16.5459 9.22872 16.3415 8.55164L15.0012 8.95628ZM15.1171 10.4286C15.0508 10.9125 14.8824 11.3824 14.6162 11.8052L15.801 12.551C16.1746 11.9575 16.4111 11.2978 16.5042 10.6186L15.1171 10.4286ZM16.5478 10.2708L16.3056 10.0286L15.3157 11.0186L15.5578 11.2608L16.5478 10.2708ZM11.988 14.4333C11.5652 14.6995 11.0953 14.868 10.6114 14.9343L10.8014 16.3213C11.4806 16.2283 12.1403 15.9918 12.7339 15.6181L11.988 14.4333ZM10.6114 14.9343C10.1235 15.0011 9.62144 14.964 9.13914 14.8183L8.7345 16.1586C9.41155 16.363 10.1165 16.4151 10.8014 16.3213L10.6114 14.9343ZM11.4436 15.375L11.2014 15.1328L10.2114 16.1228L10.4536 16.365L11.4436 15.375Z" fill="#8F96B2"/>
</svg>
