<svg width="17" height="20" viewBox="0 0 17 20" fill="none" xmlns="http://www.w3.org/2000/svg">
<path d="M14.3333 10.0003C14.3333 12.3339 14.3333 13.5007 13.8792 14.392C13.4797 15.176 12.8423 15.8134 12.0583 16.2129C11.167 16.667 10.0002 16.667 7.66667 16.667C5.33311 16.667 4.16634 16.667 3.27504 16.2129C2.49103 15.8134 1.85361 15.176 1.45414 14.392C1 13.5007 1 12.3339 1 10.0003C1 7.66677 1 6.5 1.45414 5.6087C1.85361 4.82469 2.49103 4.18727 3.27504 3.7878C4.16634 3.33366 5.33311 3.33366 7.66667 3.33366C10.0002 3.33366 11.167 3.33366 12.0583 3.7878C12.8423 4.18727 13.4797 4.82469 13.8792 5.6087C14.3333 6.5 14.3333 7.66677 14.3333 10.0003ZM14.3333 10.0003H16M7.66667 6.66699V9.58366C7.66667 10.274 8.22631 10.8337 8.91667 10.8337V10.8337H10.1667M4.33333 1.66699H11M4.33333 18.3337H11" stroke="#7881A4" stroke-width="1.4" stroke-linecap="round"/>
</svg>
