<svg width="14" height="19" viewBox="0 0 14 19" fill="none" xmlns="http://www.w3.org/2000/svg">
<path d="M9.63336 5.00033C9.63336 6.45468 8.45437 7.63366 7.00002 7.63366V9.03366C9.22757 9.03366 11.0334 7.22787 11.0334 5.00033H9.63336ZM7.00002 7.63366C5.54567 7.63366 4.36669 6.45468 4.36669 5.00033H2.96669C2.96669 7.22787 4.77247 9.03366 7.00002 9.03366V7.63366ZM4.36669 5.00033C4.36669 3.54598 5.54567 2.36699 7.00002 2.36699V0.966992C4.77247 0.966992 2.96669 2.77278 2.96669 5.00033H4.36669ZM7.00002 2.36699C8.45437 2.36699 9.63336 3.54598 9.63336 5.00033H11.0334C11.0334 2.77278 9.22757 0.966992 7.00002 0.966992V2.36699ZM4.50002 11.5337H9.50002V10.1337H4.50002V11.5337ZM9.50002 16.8003H4.50002V18.2003H9.50002V16.8003ZM4.50002 16.8003C3.04567 16.8003 1.86669 15.6213 1.86669 14.167H0.466687C0.466687 16.3945 2.27247 18.2003 4.50002 18.2003V16.8003ZM12.1334 14.167C12.1334 15.6213 10.9544 16.8003 9.50002 16.8003V18.2003C11.7276 18.2003 13.5334 16.3945 13.5334 14.167H12.1334ZM9.50002 11.5337C10.9544 11.5337 12.1334 12.7126 12.1334 14.167H13.5334C13.5334 11.9394 11.7276 10.1337 9.50002 10.1337V11.5337ZM4.50002 10.1337C2.27247 10.1337 0.466687 11.9394 0.466687 14.167H1.86669C1.86669 12.7126 3.04567 11.5337 4.50002 11.5337V10.1337Z" fill="#7881A4"/>
</svg>
