<svg width="18" height="18" viewBox="0 0 18 18" fill="none" xmlns="http://www.w3.org/2000/svg">
<path fill-rule="evenodd" clip-rule="evenodd" d="M8.91689 4.83301C9.23552 4.83301 9.49381 5.07633 9.49381 5.37649V5.82112H9.55771C10.6306 5.82112 11.4167 6.6998 11.4167 7.68212C11.4167 7.98227 11.1584 8.2256 10.8398 8.2256C10.5211 8.2256 10.2628 7.98227 10.2628 7.68212C10.2628 7.20915 9.90092 6.90808 9.55771 6.90808H9.49381V8.61905L10.2728 8.88588C10.9806 9.12835 11.4167 9.7878 11.4167 10.4862C11.4167 11.3752 10.7043 12.1782 9.72219 12.1782H9.49381V12.6229C9.49381 12.923 9.23552 13.1663 8.91689 13.1663C8.59827 13.1663 8.33997 12.923 8.33997 12.6229V12.1782H8.27566C7.20275 12.1782 6.41669 11.2995 6.41669 10.3172C6.41669 10.017 6.67498 9.77369 6.99361 9.77369C7.31224 9.77369 7.57053 10.017 7.57053 10.3172C7.57053 10.7901 7.93246 11.0912 8.27566 11.0912H8.33997V9.38038L7.56062 9.11341C6.85277 8.87093 6.41669 8.21149 6.41669 7.51309C6.41669 6.62412 7.12911 5.82112 8.11118 5.82112H8.33997V5.37649C8.33997 5.07633 8.59827 4.83301 8.91689 4.83301ZM8.33997 6.90808H8.11118C7.85882 6.90808 7.57053 7.13347 7.57053 7.51309C7.57053 7.80339 7.75008 8.02172 7.95494 8.09189L8.33997 8.22379V6.90808ZM9.49381 9.77564V11.0912H9.72219C9.97456 11.0912 10.2628 10.8658 10.2628 10.4862C10.2628 10.1959 10.0833 9.97757 9.87844 9.90739L9.49381 9.77564Z" fill="#7881A4"/>
<path d="M1.32116 6.37396C1.88171 4.11653 3.67168 2.37111 5.94213 1.86802L6.32036 1.78421C8.0305 1.40526 9.80284 1.40526 11.513 1.78421L11.8912 1.86802C14.1617 2.37111 15.9516 4.11653 16.5122 6.37396C16.9404 8.09846 16.9404 9.90154 16.5122 11.626C15.9516 13.8835 14.1617 15.6289 11.8912 16.132L11.513 16.2158C9.80284 16.5947 8.0305 16.5947 6.32036 16.2158L5.94213 16.132C3.67168 15.6289 1.88171 13.8835 1.32116 11.626C0.892946 9.90155 0.892947 8.09846 1.32116 6.37396Z" stroke="#7881A4" stroke-width="1.4"/>
</svg>
