<svg width="16" height="17" viewBox="0 0 16 17" fill="none" xmlns="http://www.w3.org/2000/svg">
<path d="M5.375 8.29134L7.04167 9.95801L9.95833 6.83301" stroke="#7881A4" stroke-width="1.4" stroke-linecap="round" stroke-linejoin="round"/>
<path d="M10.8962 14.7395L11.0466 14.6355C11.5174 14.3099 11.7529 14.1471 11.9635 13.9725C13.1079 13.0241 13.8765 11.702 14.1323 10.2421C14.1794 9.97345 14.2039 9.68922 14.2528 9.12078L14.2781 8.82686C14.3591 7.88597 14.351 6.93958 14.254 6.00019L14.2239 5.70949C14.0541 4.06558 13.0449 2.62476 11.5537 1.89719C9.10179 0.700936 6.23154 0.700936 3.77966 1.89719C2.2884 2.62476 1.2792 4.06558 1.10939 5.70949L1.07936 6.00019C0.98233 6.93958 0.974255 7.88597 1.05525 8.82686L1.08055 9.12078C1.12948 9.68923 1.15394 9.97345 1.20102 10.2421C1.45684 11.702 2.22546 13.0241 3.36984 13.9725C3.58043 14.1471 3.81592 14.3099 4.28672 14.6355L4.43718 14.7395C5.07727 15.1821 5.39735 15.4035 5.71812 15.5573C6.94941 16.1476 8.38392 16.1476 9.61521 15.5573C9.93598 15.4035 10.2561 15.1821 10.8962 14.7395Z" stroke="#7881A4" stroke-width="1.4"/>
</svg>
