<svg width="17" height="19" viewBox="0 0 17 19" fill="none" xmlns="http://www.w3.org/2000/svg">
<path d="M13.9246 13.3337L13.3109 12.9969L13.9246 13.3337ZM2.44295 13.3337L1.82927 13.6704L2.44295 13.3337ZM0.704782 6.84088L0.00567251 6.87618L0.704782 6.84088ZM12.5629 15.2332L13.0922 15.6913L12.5629 15.2332ZM3.80463 15.2332L4.33391 14.7751L3.80463 15.2332ZM15.6695 6.36441L16.369 6.3912L15.6695 6.36441ZM7.48365 13.3337C7.48365 13.7203 7.79706 14.0337 8.18365 14.0337C8.57025 14.0337 8.88365 13.7203 8.88365 13.3337H7.48365ZM14.97 6.33761C14.9043 8.05342 14.5697 10.703 13.3109 12.9969L14.5383 13.6704C15.9492 11.0991 16.2998 8.1969 16.369 6.3912L14.97 6.33761ZM13.3109 12.9969C12.9902 13.5815 12.5449 14.1844 12.0336 14.7751L13.0922 15.6913C13.6433 15.0546 14.1547 14.3695 14.5383 13.6704L13.3109 12.9969ZM4.33391 14.7751C3.82264 14.1844 3.37738 13.5815 3.05663 12.9969L1.82927 13.6704C2.21288 14.3695 2.72425 15.0546 3.27535 15.6913L4.33391 14.7751ZM3.05663 12.9969C1.83209 10.7653 1.48313 8.37519 1.40389 6.80559L0.00567251 6.87618C0.090579 8.55803 0.464106 11.1825 1.82927 13.6704L3.05663 12.9969ZM2.49263 5.76977H2.75002V4.36977H2.49263V5.76977ZM13.3745 5.28366H13.8656V3.88366H13.3745V5.28366ZM11.2161 3.12533C11.2161 4.31734 12.1825 5.28366 13.3745 5.28366V3.88366C12.9557 3.88366 12.6161 3.54414 12.6161 3.12533H11.2161ZM2.75002 5.76977C4.07627 5.76977 5.15141 4.69463 5.15141 3.36838H3.75141C3.75141 3.92143 3.30307 4.36977 2.75002 4.36977V5.76977ZM6.1528 0.966992C4.82655 0.966992 3.75141 2.04213 3.75141 3.36838H5.15141C5.15141 2.81533 5.59974 2.36699 6.1528 2.36699V0.966992ZM1.40389 6.80559C1.37609 6.25484 1.82931 5.76977 2.49263 5.76977V4.36977C1.14246 4.36977 -0.0680431 5.41599 0.00567251 6.87618L1.40389 6.80559ZM12.0336 14.7751C11.1899 15.75 10.6275 16.3937 10.055 16.8131C9.52871 17.1987 8.9924 17.3926 8.18377 17.3926V18.7926C9.27939 18.7926 10.1077 18.51 10.8824 17.9424C11.611 17.4087 12.286 16.6227 13.0922 15.6913L12.0336 14.7751ZM3.27535 15.6913C4.0815 16.6227 4.75658 17.4087 5.48515 17.9424C6.25986 18.51 7.08815 18.7926 8.18377 18.7926V17.3926C7.37514 17.3926 6.83883 17.1987 6.31251 16.8131C5.74006 16.3937 5.17769 15.75 4.33391 14.7751L3.27535 15.6913ZM10.4578 2.36699C10.8766 2.36699 11.2161 2.70651 11.2161 3.12533H12.6161C12.6161 1.93331 11.6498 0.966992 10.4578 0.966992V2.36699ZM16.369 6.3912C16.4246 4.93899 15.2236 3.88366 13.8656 3.88366V5.28366C14.5263 5.28366 14.9917 5.77257 14.97 6.33761L16.369 6.3912ZM6.1528 2.36699H10.4578V0.966992H6.1528V2.36699ZM7.48365 10.0003V13.3337H8.88365V10.0003H7.48365ZM5.81699 8.33366C5.81699 9.64073 6.87658 10.7003 8.18365 10.7003V9.30033C7.64978 9.30033 7.21699 8.86754 7.21699 8.33366H5.81699ZM8.18365 10.7003C9.49073 10.7003 10.5503 9.64073 10.5503 8.33366H9.15032C9.15032 8.86754 8.71753 9.30033 8.18365 9.30033V10.7003ZM10.5503 8.33366C10.5503 7.02659 9.49073 5.96699 8.18365 5.96699V7.36699C8.71753 7.36699 9.15032 7.79978 9.15032 8.33366H10.5503ZM8.18365 5.96699C6.87658 5.96699 5.81699 7.02659 5.81699 8.33366H7.21699C7.21699 7.79978 7.64978 7.36699 8.18365 7.36699V5.96699Z" fill="#8F96B2"/>
</svg>
