<svg width="16" height="17" viewBox="0 0 16 17" fill="none" xmlns="http://www.w3.org/2000/svg">
<path d="M8 10.5L7.293 11.207L8 11.914L8.707 11.207L8 10.5ZM9 1.5C9 1.23478 8.89464 0.98043 8.70711 0.792893C8.51957 0.605357 8.26522 0.5 8 0.5C7.73478 0.5 7.48043 0.605357 7.29289 0.792893C7.10536 0.98043 7 1.23478 7 1.5H9ZM2.293 6.207L7.293 11.207L8.707 9.793L3.707 4.793L2.293 6.207ZM8.707 11.207L13.707 6.207L12.293 4.793L7.293 9.793L8.707 11.207ZM9 10.5V1.5H7V10.5H9Z" fill="white"/>
<path d="M1 12.5V13.5C1 14.0304 1.21071 14.5391 1.58579 14.9142C1.96086 15.2893 2.46957 15.5 3 15.5H13C13.5304 15.5 14.0391 15.2893 14.4142 14.9142C14.7893 14.5391 15 14.0304 15 13.5V12.5" stroke="white" stroke-width="2"/>
</svg>
