<svg width="25" height="24" viewBox="0 0 25 24" fill="none" xmlns="http://www.w3.org/2000/svg">
    <path
        d="M21.6857 6.95003C21.0457 4.78003 19.2357 2.97003 17.0657 2.33003C15.4157 1.85003 14.2757 1.89003 13.4857 2.48003C12.5357 3.19003 12.4257 4.47003 12.4257 5.38003V7.87003C12.4257 10.33 13.5457 11.58 15.7457 11.58H18.6157C19.5157 11.58 20.8057 11.47 21.5157 10.52C22.1257 9.74003 22.1757 8.60003 21.6857 6.95003Z"
        fill="#7A297B"/>
    <path opacity="0.4"
          d="M18.9256 13.36C18.6656 13.06 18.2856 12.89 17.8956 12.89H14.3156C12.5556 12.89 11.1256 11.46 11.1256 9.70003V6.12003C11.1256 5.73003 10.9556 5.35003 10.6556 5.09003C10.3656 4.83003 9.96565 4.71003 9.58565 4.76003C7.23565 5.06003 5.07565 6.35003 3.66565 8.29003C2.24565 10.24 1.72565 12.62 2.17565 15C2.82565 18.44 5.57565 21.19 9.02565 21.84C9.57565 21.95 10.1256 22 10.6756 22C12.4856 22 14.2356 21.44 15.7256 20.35C17.6656 18.94 18.9556 16.78 19.2556 14.43C19.3056 14.04 19.1856 13.65 18.9256 13.36Z"
          fill="#7A297B"/>
</svg>
