<svg width="32" height="40" viewBox="0 0 32 40" fill="none" xmlns="http://www.w3.org/2000/svg">
<path d="M4.18672 29.3525V33.415H2.08985C1.82211 33.415 1.55701 33.3621 1.30981 33.2593C1.0626 33.1565 0.83815 33.0058 0.649377 32.816C0.460604 32.6261 0.311228 32.4008 0.20984 32.153C0.108452 31.9052 0.0570524 31.6398 0.058597 31.3721C0.0586147 31.3053 0.062266 31.2385 0.0695345 31.1721C0.121867 30.6727 0.357287 30.2104 0.73037 29.8744C1.10345 29.5384 1.58776 29.3525 2.08985 29.3525H4.18672Z" fill="#0081A3"/>
<path d="M8.96486 18.8955C9.98049 18.8955 10.8485 19.7221 10.8485 20.7416C10.8485 21.7611 9.98596 22.5877 8.96486 22.5877C8.45939 22.5877 7.15627 22.5963 7.15627 22.5963C7.15627 22.5963 7.14846 21.2557 7.14846 20.7416C7.14846 20.3197 7.14377 18.8955 7.14377 18.8955H8.96486Z" fill="#00B7E2"/>
<path d="M15.9523 18.8952C17.6937 18.8952 18.5945 20.3632 18.5945 22.1663C18.5945 23.9694 17.5937 25.3952 16.0062 25.4233C15.4781 25.4327 14.1133 25.4374 14.1133 25.4374C14.1133 25.4374 14.1039 23.0671 14.1039 22.1562C14.1039 21.4335 14.0992 19.0491 14.0992 18.8991V18.8921L15.9523 18.8952Z" fill="#00B7E2"/>
<path d="M7.14999 20.7412C7.14999 21.2553 7.1578 22.5959 7.1578 22.5959C7.1578 22.5959 8.46093 22.5873 8.96639 22.5873C9.98202 22.5873 10.85 21.7607 10.85 20.7412C10.85 19.7217 9.98593 18.8951 8.96483 18.8951H7.1453C7.1453 18.8951 7.14999 20.3193 7.14999 20.7412ZM14.1031 22.1592C14.1031 23.067 14.1125 25.4404 14.1125 25.4404C14.1125 25.4404 15.4773 25.4357 16.0055 25.4264C17.593 25.3982 18.5937 23.9717 18.5937 22.1693C18.5937 20.367 17.693 18.8982 15.9515 18.8982H14.0992V18.9061C14.0992 19.0521 14.1039 21.4365 14.1039 22.1592H14.1031ZM31.9414 28.5936V29.3451L5.78358 29.3514H2.08983C1.58762 29.3514 1.10322 29.5374 0.730114 29.8736C0.357013 30.2097 0.121671 30.6722 0.069519 31.1717L0.103894 16.8365C0.103894 16.2978 0.3179 15.7811 0.698833 15.4002C1.07977 15.0193 1.59642 14.8053 2.13514 14.8053H4.18671L31.9414 14.7998V28.5936Z" fill="#00B7E2"/>
<path d="M31.9414 29.3462V35.9188C31.9414 37.0013 31.5114 38.0393 30.746 38.8047C29.9806 39.5701 28.9426 40.0001 27.8601 40.0001H8.26874C7.73271 40.0002 7.20192 39.8947 6.70667 39.6897C6.21142 39.4846 5.76142 39.184 5.38235 38.805C5.00329 38.426 4.7026 37.9761 4.49745 37.4809C4.2923 36.9856 4.18671 36.4549 4.18671 35.9188V29.3524H5.78358L31.9414 29.3462Z" fill="#E7E7E9"/>
<path d="M24.5961 0.185059C24.8512 0.289148 25.0869 0.435758 25.293 0.618652L31.1211 5.7999C31.5312 6.16571 31.8064 6.6588 31.9024 7.1999H27.043C26.3936 7.1999 25.7708 6.94194 25.3117 6.48277C24.8525 6.0236 24.5945 5.40083 24.5945 4.75146V0.185059H24.5961Z" fill="#A3A2A3"/>
<path d="M23.6633 8.5785e-07C23.9834 -0.000267981 24.3004 0.0626535 24.5961 0.185157V4.75156C24.5961 5.40093 24.8541 6.0237 25.3132 6.48287C25.7724 6.94204 26.3952 7.2 27.0445 7.2H31.9039C31.9296 7.34178 31.9424 7.4856 31.9422 7.62969V14.8008L4.1875 14.8063V4.89766C4.1875 3.59885 4.70339 2.35323 5.62171 1.43477C6.54003 0.516301 7.78557 0.000208037 9.08437 8.5785e-07H23.6633Z" fill="#E7E7E9"/>
<path d="M22.193 26.2499C22.0862 26.2499 21.9804 26.2289 21.8818 26.188C21.7831 26.1471 21.6934 26.0872 21.6179 26.0117C21.5424 25.9362 21.4825 25.8465 21.4416 25.7478C21.4007 25.6492 21.3797 25.5434 21.3797 25.4366V18.8952C21.3797 18.7884 21.4007 18.6827 21.4416 18.584C21.4825 18.4853 21.5424 18.3957 21.6179 18.3201C21.6934 18.2446 21.7831 18.1847 21.8818 18.1438C21.9804 18.103 22.0862 18.0819 22.193 18.0819H24.8445C24.9534 18.0786 25.0619 18.0971 25.1634 18.1364C25.265 18.1758 25.3576 18.2351 25.4358 18.3109C25.514 18.3867 25.5762 18.4775 25.6187 18.5778C25.6611 18.6781 25.683 18.7859 25.683 18.8948C25.683 19.0037 25.6611 19.1116 25.6187 19.2119C25.5762 19.3122 25.514 19.4029 25.4358 19.4787C25.3576 19.5546 25.265 19.6139 25.1634 19.6532C25.0619 19.6926 24.9534 19.7111 24.8445 19.7077H23.0055V25.4374C23.0053 25.6528 22.9196 25.8594 22.7673 26.0117C22.6149 26.164 22.4084 26.2497 22.193 26.2499Z" fill="white"/>
<path d="M24.6336 22.9172H22.193C22.0841 22.9206 21.9757 22.902 21.8741 22.8627C21.7725 22.8234 21.6799 22.764 21.6017 22.6882C21.5235 22.6124 21.4613 22.5216 21.4188 22.4213C21.3764 22.321 21.3545 22.2132 21.3545 22.1043C21.3545 21.9954 21.3764 21.8876 21.4188 21.7873C21.4613 21.6869 21.5235 21.5962 21.6017 21.5204C21.6799 21.4446 21.7725 21.3852 21.8741 21.3459C21.9757 21.3066 22.0841 21.288 22.193 21.2914H24.6336C24.8448 21.298 25.0452 21.3865 25.1923 21.5382C25.3394 21.6899 25.4217 21.893 25.4217 22.1043C25.4217 22.3156 25.3394 22.5187 25.1923 22.6704C25.0452 22.8221 24.8448 22.9106 24.6336 22.9172Z" fill="white"/>
<path d="M14.0992 26.1443C13.8837 26.1443 13.6769 26.0588 13.5244 25.9064C13.3719 25.7541 13.2862 25.5474 13.2859 25.3318V18.9061C13.2859 18.6904 13.3716 18.4835 13.5242 18.331C13.6767 18.1785 13.8835 18.0928 14.0992 18.0928C14.3149 18.0928 14.5218 18.1785 14.6743 18.331C14.8268 18.4835 14.9125 18.6904 14.9125 18.9061V25.3357C14.9113 25.5506 14.825 25.7563 14.6727 25.9078C14.5203 26.0593 14.3141 26.1443 14.0992 26.1443Z" fill="white"/>
<path d="M14.1133 26.25C13.8981 26.25 13.6917 26.1647 13.5393 26.0129C13.3869 25.8611 13.3008 25.655 13.3 25.4398C13.3 25.4156 13.2914 23.0578 13.2914 22.1586C13.2914 21.6617 13.2914 20.3813 13.2914 19.5805C13.2914 19.2148 13.2914 18.9492 13.2914 18.9023C13.2912 18.6859 13.3766 18.4782 13.529 18.3245C13.6813 18.1709 13.8883 18.0837 14.1047 18.082H15.9578C18.0242 18.082 19.4125 19.7227 19.4125 22.1664C19.4125 24.4898 17.9891 26.2016 16.0266 26.2367C15.4977 26.2453 14.1773 26.25 14.1211 26.2508L14.1133 26.25ZM14.9133 19.707C14.9133 20.5117 14.9172 21.6875 14.9172 22.1586C14.9172 22.718 14.9172 23.8453 14.9234 24.6195C15.3141 24.6195 15.7469 24.6141 15.993 24.6102C17.2281 24.5875 17.7813 23.3664 17.7813 22.1656C17.7813 20.9773 17.3008 19.707 15.9523 19.707H14.9133Z" fill="white"/>
<path d="M7.14532 26.2498C6.92976 26.2496 6.7231 26.1638 6.57075 26.0113C6.4184 25.8588 6.33282 25.6521 6.33282 25.4365V18.8951C6.32944 18.7863 6.34797 18.6778 6.3873 18.5762C6.42664 18.4747 6.48597 18.382 6.56179 18.3038C6.63761 18.2256 6.72836 18.1634 6.82867 18.121C6.92897 18.0785 7.03679 18.0566 7.14571 18.0566C7.25463 18.0566 7.36245 18.0785 7.46275 18.121C7.56306 18.1634 7.65381 18.2256 7.72963 18.3038C7.80545 18.382 7.86478 18.4747 7.90411 18.5762C7.94345 18.6778 7.96198 18.7863 7.9586 18.8951V25.4373C7.95839 25.6529 7.87262 25.8595 7.72012 26.0119C7.56762 26.1642 7.36088 26.2498 7.14532 26.2498Z" fill="white"/>
<path d="M7.15783 23.4086C6.94308 23.4086 6.73704 23.3237 6.58468 23.1723C6.43231 23.021 6.34599 22.8155 6.34455 22.6008C6.34455 22.5875 6.33673 21.2516 6.33673 20.7414C6.33673 20.3203 6.33673 18.8977 6.33673 18.8977C6.33643 18.7907 6.35721 18.6848 6.39789 18.5859C6.43858 18.487 6.49836 18.3971 6.57383 18.3213C6.6493 18.2456 6.73897 18.1855 6.8377 18.1444C6.93644 18.1033 7.0423 18.0821 7.14923 18.082H8.96486C10.4492 18.082 11.661 19.275 11.661 20.7383C11.661 22.2016 10.4516 23.3945 8.96486 23.3945C8.46798 23.3945 7.17423 23.4023 7.16095 23.4023L7.15783 23.4086ZM7.96095 19.7078V20.7414V21.7781H8.96095C9.54142 21.7781 10.0313 21.3047 10.0313 20.7445C10.0313 20.1844 9.54142 19.7109 8.96095 19.7109L7.96095 19.7078Z" fill="white"/>
</svg>
