<svg width="15" height="14" viewBox="0 0 15 14" fill="none" xmlns="http://www.w3.org/2000/svg">
<path d="M1.16731 2.58516L13.8756 0.3303C14.004 0.307435 14.1362 0.322174 14.257 0.372814C14.3778 0.423453 14.4821 0.507924 14.558 0.616455C14.6339 0.724987 14.6782 0.853144 14.6859 0.986106C14.6935 1.11907 14.6641 1.2514 14.6011 1.3678L8.37399 12.8911C8.3102 13.0094 8.21444 13.1062 8.09812 13.1703C7.98179 13.2344 7.84978 13.2629 7.71781 13.2525C7.58583 13.2421 7.45944 13.1932 7.35367 13.1116C7.24791 13.0301 7.16722 12.9193 7.1212 12.7924L5.58323 8.54922C5.56437 8.49722 5.56089 8.44076 5.57324 8.38686C5.58558 8.33296 5.6132 8.28402 5.65265 8.24613L9.79443 4.26998C9.81166 4.25324 9.82434 4.23222 9.83124 4.20896C9.83814 4.1857 9.83903 4.16099 9.83382 4.13724L9.82197 4.10284C9.80756 4.07459 9.78423 4.05211 9.75578 4.03905C9.72733 4.026 9.69542 4.02314 9.66524 4.03093L9.6357 4.04201L4.60634 6.73917C4.5584 6.76475 4.50411 6.77535 4.45022 6.76965C4.39634 6.76395 4.34523 6.74222 4.30325 6.70714L0.851296 3.82609C0.748558 3.74046 0.671993 3.62656 0.630722 3.49795C0.589451 3.36935 0.585213 3.23145 0.618512 3.10069C0.651812 2.96992 0.721245 2.85181 0.818543 2.76041C0.91584 2.66901 1.0369 2.60818 1.16731 2.58516Z" fill="#5D697A"/>
</svg>
