<svg width="18" height="18" viewBox="0 0 18 18" fill="none" xmlns="http://www.w3.org/2000/svg">
<path d="M8.99984 0.666664C4.39984 0.666664 0.666504 4.4 0.666504 9C0.666504 13.6 4.39984 17.3333 8.99984 17.3333C13.5998 17.3333 17.3332 13.6 17.3332 9C17.3332 4.4 13.5998 0.666664 8.99984 0.666664ZM8.99984 3.16666C10.3832 3.16666 11.4998 4.28333 11.4998 5.66666C11.4998 7.05 10.3832 8.16666 8.99984 8.16666C7.6165 8.16666 6.49984 7.05 6.49984 5.66666C6.49984 4.28333 7.6165 3.16666 8.99984 3.16666ZM8.99984 15C6.9165 15 5.07484 13.9333 3.99984 12.3167C4.02484 10.6583 7.33317 9.75 8.99984 9.75C10.6582 9.75 13.9748 10.6583 13.9998 12.3167C12.9248 13.9333 11.0832 15 8.99984 15Z" fill="#5D697A"/>
</svg>
