<svg width="17" height="17" viewBox="0 0 17 17" fill="none" xmlns="http://www.w3.org/2000/svg">
<path d="M0.385742 0.493408C5.80194 3.20259 10.9925 5.79789 16.3787 8.49109C11.0244 11.1683 5.82791 13.7656 0.613415 16.3729C0.443659 16.0592 0.649363 15.8514 0.737236 15.6317C1.49015 13.7516 2.27302 11.8836 2.99998 9.99153C3.21367 9.43811 3.50126 9.23631 4.0944 9.2483C5.92377 9.28427 7.75513 9.27428 9.5845 9.2543C10.1736 9.2483 11.0304 9.48606 11.0384 8.52306C11.0484 7.49613 10.1517 7.73987 9.53257 7.73188C7.70321 7.70791 5.87184 7.70191 4.04248 7.73588C3.48528 7.74587 3.21567 7.54807 3.01596 7.0386C2.19713 4.93679 1.33837 2.85096 0.385742 0.493408Z" fill="white"/>
</svg>
