<svg width="18" height="20" viewBox="0 0 18 20" fill="none" xmlns="http://www.w3.org/2000/svg">
<path d="M3.94321 4.48909L3.77301 5.16809L3.94321 4.48909ZM6.75534 2.86551L6.08222 2.67341L6.75534 2.86551ZM1.69862 8.37684L2.20155 7.88995L1.69862 8.37684ZM1.69862 11.624L1.19569 11.1371H1.19569L1.69862 11.624ZM3.94321 15.5118L4.11341 16.1907L3.94321 15.5118ZM6.75534 17.1353L6.08222 17.3274L6.75534 17.1353ZM11.2445 17.1353L11.9177 17.3274L11.2445 17.1353ZM14.0567 15.5118L14.2269 14.8328L14.0567 15.5118ZM16.3012 11.624L15.7983 12.1109L16.3012 11.624ZM16.3012 8.37684L15.7983 7.88995L16.3012 8.37684ZM14.0567 4.48909L13.8865 3.8101L14.0567 4.48909ZM11.2445 2.86551L11.9177 2.67341L11.2445 2.86551ZM3.77301 5.16809C5.36136 5.56623 6.97909 4.63223 7.42847 3.05761L6.08222 2.67341C5.84019 3.52149 4.96889 4.02453 4.11341 3.8101L3.77301 5.16809ZM2.20155 7.88995C1.05798 6.70871 2.17825 4.76834 3.77301 5.16809L4.11341 3.8101C1.15244 3.06789 -0.927556 6.67056 1.19569 8.86373L2.20155 7.88995ZM2.20155 12.1109C3.34052 10.9344 3.34052 9.06643 2.20155 7.88995L1.19569 8.86373C1.80914 9.49738 1.80914 10.5035 1.19569 11.1371L2.20155 12.1109ZM3.77301 14.8328C2.17825 15.2325 1.05798 13.2921 2.20155 12.1109L1.19569 11.1371C-0.927556 13.3303 1.15244 16.933 4.11341 16.1907L3.77301 14.8328ZM7.42847 16.9432C6.97909 15.3686 5.36136 14.4346 3.77301 14.8328L4.11341 16.1907C4.96889 15.9763 5.84019 16.4794 6.08222 17.3274L7.42847 16.9432ZM10.5714 16.9432C10.1202 18.5242 7.87966 18.5242 7.42847 16.9432L6.08222 17.3274C6.91993 20.2628 11.0799 20.2628 11.9177 17.3274L10.5714 16.9432ZM14.2269 14.8328C12.6385 14.4346 11.0208 15.3686 10.5714 16.9432L11.9177 17.3274C12.1597 16.4794 13.031 15.9763 13.8865 16.1907L14.2269 14.8328ZM15.7983 12.1109C16.9419 13.2921 15.8216 15.2325 14.2269 14.8328L13.8865 16.1907C16.8474 16.933 18.9274 13.3303 16.8042 11.1371L15.7983 12.1109ZM15.7983 7.88995C14.6593 9.06643 14.6593 10.9344 15.7983 12.1109L16.8042 11.1371C16.1907 10.5035 16.1907 9.49738 16.8042 8.86373L15.7983 7.88995ZM14.2269 5.16809C15.8216 4.76834 16.9419 6.70871 15.7983 7.88995L16.8042 8.86373C18.9274 6.67056 16.8474 3.06789 13.8865 3.8101L14.2269 5.16809ZM10.5714 3.05761C11.0208 4.63223 12.6385 5.56623 14.2269 5.16809L13.8865 3.8101C13.031 4.02453 12.1597 3.52149 11.9177 2.67341L10.5714 3.05761ZM11.9177 2.67341C11.0799 -0.261969 6.91993 -0.261968 6.08222 2.67341L7.42847 3.05761C7.87966 1.47663 10.1202 1.47663 10.5714 3.05761L11.9177 2.67341ZM5.79993 10.0004C5.79993 11.7677 7.23262 13.2004 8.99993 13.2004V11.8004C8.00582 11.8004 7.19993 10.9945 7.19993 10.0004H5.79993ZM8.99993 13.2004C10.7672 13.2004 12.1999 11.7677 12.1999 10.0004H10.7999C10.7999 10.9945 9.99405 11.8004 8.99993 11.8004V13.2004ZM12.1999 10.0004C12.1999 8.23311 10.7672 6.80042 8.99993 6.80042V8.20042C9.99405 8.20042 10.7999 9.00631 10.7999 10.0004H12.1999ZM8.99993 6.80042C7.23262 6.80042 5.79993 8.23311 5.79993 10.0004H7.19993C7.19993 9.00631 8.00582 8.20042 8.99993 8.20042V6.80042Z" fill="#3C802B"/>
</svg>
